<svg id="svg" version="1.1" xmlns="http://www.w3.org/2000/svg" xmlns:xlink="http://www.w3.org/1999/xlink" width="400" height="360.0532623169108" viewBox="0, 0, 400,360.0532623169108"><g id="svgg"><path id="path0" d="M194.643 0.119 C 194.578 0.185,193.449 0.365,192.135 0.519 C 176.685 2.332,164.117 8.916,152.966 21.039 C 149.681 24.610,150.234 24.754,156.053 21.840 C 169.368 15.173,180.634 11.727,191.744 10.925 C 205.464 9.933,219.300 13.886,230.171 21.902 C 232.401 23.547,232.425 23.527,228.929 22.897 C 215.901 20.548,197.887 19.609,187.084 20.717 C 174.551 22.003,162.669 24.237,152.071 27.300 C 142.465 30.077,142.356 30.146,144.350 32.201 C 144.955 32.825,145.571 33.684,145.720 34.111 C 146.057 35.077,145.951 35.082,149.509 33.931 C 181.111 23.709,216.190 23.633,249.996 33.713 C 254.200 34.967,254.594 34.991,254.594 33.994 C 254.594 33.641,255.084 32.919,255.802 32.214 C 257.434 30.613,257.335 30.109,255.260 29.460 C 251.670 28.336,251.641 28.313,248.615 24.263 C 246.646 21.628,241.903 16.945,237.390 13.182 C 235.768 11.830,231.182 8.834,228.168 7.158 C 221.787 3.610,213.715 1.065,206.340 0.276 C 203.806 0.005,194.877 -0.115,194.643 0.119 M189.880 30.008 C 184.706 30.537,179.169 31.198,178.838 31.325 C 178.473 31.465,178.429 34.843,178.429 62.624 L 178.429 93.766 179.161 94.170 C 179.564 94.392,182.170 95.779,184.953 97.253 C 187.736 98.726,190.347 100.168,190.755 100.457 C 192.382 101.608,192.277 104.017,192.277 65.416 C 192.277 27.710,192.342 29.703,191.123 29.870 C 190.952 29.893,190.393 29.955,189.880 30.008 M206.038 30.018 C 205.836 30.345,205.758 108.277,205.959 108.602 C 206.399 109.314,217.654 113.981,218.929 113.981 C 219.503 113.981,219.762 31.388,219.190 31.035 C 218.921 30.869,212.976 30.251,208.755 29.951 C 207.235 29.843,206.130 29.870,206.038 30.018 M233.146 33.622 C 233.076 33.805,233.050 52.350,233.087 74.834 L 233.156 115.712 234.173 115.796 C 236.634 115.999,244.557 113.439,246.525 111.806 C 247.077 111.348,247.031 36.949,246.479 36.491 C 246.089 36.168,242.250 35.181,236.556 33.941 C 233.053 33.178,233.306 33.201,233.146 33.622 M157.790 35.633 C 154.714 36.468,152.047 37.247,151.864 37.366 C 151.602 37.536,151.531 43.044,151.531 63.431 L 151.531 89.281 152.264 89.124 C 152.666 89.038,153.895 88.772,154.993 88.532 C 156.967 88.102,160.147 88.119,163.983 88.581 L 165.382 88.750 165.314 61.485 L 165.246 34.221 164.314 34.168 C 163.802 34.139,160.866 34.799,157.790 35.633 " stroke="none" fill="#a47c54" fill-rule="evenodd"></path><path id="path1" d="M155.126 96.000 C 140.574 98.702,137.025 111.700,146.296 128.350 C 148.191 131.754,148.780 132.315,148.513 130.462 C 146.471 116.296,149.667 109.097,158.838 107.202 C 166.274 105.666,173.609 108.227,189.921 118.052 C 208.127 129.017,214.754 131.629,225.300 131.994 C 244.762 132.667,257.191 124.344,257.133 110.677 C 257.122 108.085,256.792 107.877,255.700 109.774 C 249.833 119.970,238.045 125.052,225.166 122.939 C 216.307 121.485,211.292 119.288,191.345 108.120 C 172.658 97.657,163.216 94.498,155.126 96.000 M161.033 114.005 C 153.205 116.237,150.292 123.227,152.582 134.288 C 153.338 137.939,154.194 138.836,154.194 135.976 C 154.194 128.838,161.087 124.005,170.173 124.773 C 177.098 125.358,181.678 127.415,194.088 135.511 C 208.538 144.938,213.587 146.821,224.501 146.854 C 238.451 146.897,248.783 141.347,253.300 131.385 C 254.411 128.935,253.906 127.347,252.615 129.228 C 252.131 129.933,249.863 131.631,247.339 133.179 C 237.792 139.032,225.159 140.107,213.416 136.065 C 207.701 134.097,203.711 131.854,188.948 122.310 C 176.709 114.398,168.363 111.915,161.033 114.005 M164.677 130.078 C 154.997 132.264,153.986 140.068,162.466 147.134 C 181.605 163.081,212.276 164.995,234.564 151.633 C 238.826 149.077,238.689 148.531,234.088 149.744 C 227.147 151.573,217.954 152.015,212.333 150.788 C 204.935 149.174,200.810 146.971,191.345 139.581 C 183.705 133.617,180.293 131.577,175.860 130.327 C 173.725 129.725,166.912 129.573,164.677 130.078 M-0.000 152.530 L -0.000 154.061 75.300 153.995 C 116.714 153.959,150.749 153.929,150.932 153.929 C 151.519 153.928,151.359 151.600,150.750 151.274 C 150.398 151.086,126.388 150.999,75.117 150.999 L 0.000 150.999 -0.000 152.530 M249.201 151.286 C 248.636 151.615,248.520 153.928,249.068 153.929 C 249.251 153.929,283.286 153.959,324.700 153.995 L 400.000 154.061 400.000 152.530 L 400.000 150.999 324.834 151.007 C 274.272 151.012,249.515 151.104,249.201 151.286 M64.980 165.918 C 47.483 168.341,37.725 181.066,38.437 200.533 C 38.756 209.268,40.996 215.980,45.448 221.544 C 46.955 223.427,51.012 227.164,51.549 227.164 C 51.663 227.164,51.951 227.341,52.190 227.557 C 55.548 230.596,68.512 232.623,75.499 231.201 C 83.812 229.509,86.441 227.941,86.980 224.356 C 87.592 220.284,87.559 220.266,84.219 222.816 C 71.032 232.886,54.744 228.629,49.114 213.640 C 45.758 204.706,45.993 191.363,49.659 182.672 C 55.653 168.460,72.598 164.866,83.682 175.456 C 85.946 177.619,86.423 177.723,86.690 176.113 C 86.847 175.166,87.648 171.830,88.031 170.525 C 88.755 168.058,72.699 164.849,64.980 165.918 M114.115 165.941 C 98.949 168.126,89.945 180.359,89.928 198.802 C 89.909 219.520,100.629 231.682,118.908 231.681 C 128.645 231.680,135.401 228.810,140.680 222.433 C 150.101 211.053,150.637 189.080,141.796 176.666 C 135.954 168.463,125.288 164.331,114.115 165.941 M172.111 165.979 C 171.969 166.162,169.486 172.244,166.594 179.494 C 161.440 192.412,153.816 211.135,148.754 223.302 C 145.497 231.132,145.468 230.573,149.135 230.573 C 152.591 230.573,152.118 231.064,153.699 225.832 C 154.952 221.685,159.192 209.346,160.072 207.285 L 160.543 206.181 163.960 205.984 C 168.378 205.729,181.041 205.967,181.385 206.312 C 181.734 206.661,186.608 219.768,188.446 225.300 C 189.249 227.716,190.002 229.872,190.120 230.090 C 190.296 230.416,191.102 230.487,194.634 230.490 C 199.766 230.493,199.511 230.880,197.494 226.149 C 194.227 218.488,188.646 204.166,178.386 177.119 C 176.196 171.345,174.287 166.401,174.144 166.133 C 173.842 165.570,172.506 165.468,172.111 165.979 M218.285 165.908 C 209.129 167.561,203.932 173.881,203.938 183.356 C 203.944 191.962,207.367 196.353,217.810 201.150 C 229.106 206.339,232.089 210.966,229.531 219.327 C 226.108 230.512,211.232 230.673,205.863 219.583 C 204.957 217.711,204.095 217.850,203.852 219.907 C 203.753 220.749,203.487 222.277,203.262 223.302 C 202.417 227.146,202.362 226.923,204.496 228.341 C 211.519 233.010,221.683 232.973,228.920 228.253 C 230.357 227.316,233.023 224.702,233.023 224.230 C 233.023 224.122,233.223 223.869,233.467 223.668 C 234.860 222.522,236.729 216.446,236.938 212.383 C 237.385 203.703,234.339 199.426,224.501 194.923 C 219.110 192.455,217.942 191.845,216.074 190.521 C 212.559 188.029,210.946 185.400,210.722 181.799 C 209.934 169.141,224.740 164.464,230.243 175.632 C 231.771 178.733,232.187 178.686,233.069 175.311 C 233.443 173.877,233.970 172.140,234.238 171.451 C 235.577 168.016,225.672 164.575,218.285 165.908 M301.020 166.096 C 300.204 168.356,282.506 212.195,279.244 220.035 C 276.944 225.562,275.133 230.197,275.218 230.335 C 275.304 230.474,276.715 230.566,278.355 230.540 L 281.336 230.493 281.665 229.561 C 281.846 229.048,282.498 226.951,283.114 224.900 C 284.723 219.540,289.201 206.862,289.651 206.391 C 290.126 205.894,310.016 205.781,310.508 206.274 C 310.829 206.595,316.197 221.146,318.069 226.773 L 319.313 230.510 323.705 230.502 C 328.783 230.491,328.561 230.659,327.263 227.800 C 325.176 223.205,314.177 194.982,305.790 172.703 L 303.184 165.779 302.189 165.696 C 301.423 165.632,301.154 165.724,301.020 166.096 M238.857 167.111 C 238.749 167.111,238.780 172.641,238.888 172.707 C 238.965 172.755,240.763 172.634,242.883 172.440 C 250.295 171.759,255.764 171.655,256.206 172.187 C 256.606 172.669,256.780 208.492,256.457 224.101 L 256.325 230.493 260.453 230.493 L 264.581 230.493 264.548 229.427 C 264.529 228.842,264.381 224.407,264.219 219.574 C 263.908 210.350,263.868 185.595,264.149 176.964 L 264.314 171.904 268.442 171.961 C 270.712 171.993,274.308 172.165,276.431 172.343 C 278.555 172.521,280.641 172.675,281.067 172.685 L 281.841 172.703 281.872 169.907 L 281.903 167.111 260.392 167.111 C 248.561 167.111,238.870 167.111,238.857 167.111 M333.522 167.298 C 333.458 167.401,333.542 171.015,333.709 175.329 C 333.963 181.880,333.896 216.983,333.608 228.325 L 333.555 230.419 348.935 230.456 C 357.393 230.476,364.321 230.433,364.330 230.360 C 364.338 230.286,364.359 229.088,364.377 227.696 L 364.409 225.166 363.629 225.198 C 363.200 225.215,361.052 225.414,358.855 225.639 C 356.658 225.865,353.362 226.061,351.531 226.074 C 349.700 226.088,346.822 226.175,345.134 226.266 C 342.394 226.415,342.024 226.382,341.673 225.959 C 341.196 225.385,341.122 182.824,341.580 173.236 C 341.727 170.160,341.807 167.520,341.757 167.369 C 341.654 167.059,333.712 166.990,333.522 167.298 M124.101 170.046 C 134.018 172.621,139.555 182.005,140.005 196.997 C 140.598 216.786,132.877 228.096,118.775 228.096 C 105.348 228.096,97.921 217.679,97.887 198.802 C 97.849 177.819,108.604 166.022,124.101 170.046 M175.628 190.160 C 178.032 196.211,179.938 201.260,179.864 201.380 C 179.658 201.713,162.783 201.656,162.577 201.321 C 162.408 201.048,170.957 178.858,171.155 179.056 C 171.212 179.112,173.225 184.109,175.628 190.160 M304.772 190.282 C 307.170 196.286,309.078 201.288,309.011 201.398 C 308.747 201.834,291.611 201.632,291.611 201.193 C 291.611 200.970,293.469 196.053,295.739 190.267 C 298.009 184.480,299.867 179.619,299.867 179.465 C 299.867 178.328,300.962 180.743,304.772 190.282 M184.554 239.853 C 167.925 241.452,158.217 254.569,158.803 274.644 C 159.380 294.448,169.923 305.810,187.750 305.842 C 206.183 305.875,216.624 293.988,216.624 272.969 C 216.624 251.103,203.926 237.990,184.554 239.853 M34.088 240.491 C 16.705 241.794,6.028 254.345,6.006 273.502 C 5.981 295.776,20.989 309.193,42.206 305.866 C 50.583 304.552,54.035 302.631,54.561 298.990 C 55.128 295.063,54.950 294.876,52.526 296.850 C 43.159 304.480,31.992 304.977,23.409 298.145 C 15.272 291.668,12.009 274.322,16.293 260.320 C 21.280 244.018,39.364 238.660,51.124 250.000 C 53.216 252.016,53.972 252.348,54.164 251.332 C 54.226 251.002,54.597 249.369,54.987 247.702 C 55.796 244.247,55.897 244.494,53.262 243.446 C 46.680 240.828,41.092 239.967,34.088 240.491 M84.247 240.417 C 84.078 240.524,81.304 247.204,78.081 255.260 C 71.645 271.348,67.526 281.454,61.803 295.191 C 59.731 300.163,58.073 304.417,58.116 304.645 C 58.213 305.148,63.767 305.300,64.160 304.810 C 64.285 304.655,64.957 302.610,65.655 300.266 C 66.730 296.651,69.184 289.436,71.678 282.557 L 72.306 280.826 74.435 280.643 C 78.530 280.293,92.882 280.716,93.312 281.199 C 93.755 281.698,97.576 291.898,100.104 299.334 C 101.076 302.190,101.947 304.647,102.042 304.794 C 102.340 305.259,110.636 305.088,110.729 304.615 C 110.772 304.399,110.191 302.794,109.440 301.046 C 106.294 293.733,98.798 274.504,89.877 250.866 C 85.771 239.984,85.555 239.583,84.247 240.417 M286.668 240.373 C 286.471 240.455,286.418 244.773,286.493 254.533 C 286.617 270.632,285.935 292.233,284.987 302.264 C 284.719 305.089,284.658 305.032,288.009 305.066 C 291.312 305.100,291.059 305.489,290.791 300.799 C 290.444 294.737,290.185 268.810,290.405 262.196 L 290.609 256.083 291.443 257.042 C 291.902 257.570,292.936 258.806,293.742 259.789 C 294.547 260.771,295.566 261.964,296.005 262.439 C 296.445 262.913,297.643 264.295,298.668 265.509 C 299.694 266.723,301.072 268.350,301.731 269.125 C 302.390 269.900,303.648 271.391,304.527 272.439 C 306.330 274.588,308.094 276.641,310.277 279.129 C 313.708 283.040,331.110 304.261,332.001 305.622 C 332.457 306.317,332.996 306.569,333.564 306.351 C 333.925 306.213,333.965 303.914,333.916 285.920 C 333.866 267.973,333.929 264.276,334.467 253.711 C 335.142 240.443,335.212 241.366,333.565 241.781 C 332.658 242.009,332.054 242.009,331.141 241.779 C 329.330 241.323,329.378 241.035,329.699 250.488 C 329.858 255.163,329.951 265.901,329.907 274.350 L 329.827 289.712 327.430 287.013 C 322.293 281.228,317.874 276.036,297.480 251.829 C 292.991 246.500,292.017 245.324,291.071 244.091 C 289.698 242.304,287.648 240.212,287.291 240.234 C 287.104 240.246,286.823 240.308,286.668 240.373 M117.001 241.959 C 116.910 242.198,116.942 244.688,117.073 247.494 C 117.325 252.917,117.401 290.784,117.177 299.732 L 117.044 305.056 121.172 305.058 L 125.300 305.060 125.260 303.063 C 125.238 301.964,125.075 295.346,124.897 288.355 C 124.718 281.364,124.642 275.462,124.728 275.239 C 124.958 274.639,127.058 274.702,127.860 275.333 C 128.812 276.082,135.167 284.316,137.112 287.320 C 137.646 288.145,138.634 289.538,139.308 290.415 C 139.983 291.293,142.420 294.827,144.725 298.269 C 147.029 301.711,149.021 304.638,149.151 304.773 C 149.280 304.908,151.547 305.028,154.187 305.039 C 159.695 305.063,159.747 305.035,157.897 303.040 C 157.297 302.393,155.939 300.666,154.879 299.201 C 141.891 281.253,136.900 274.224,137.013 274.041 C 137.088 273.921,137.778 273.674,138.548 273.493 C 148.041 271.258,153.542 264.803,153.519 255.925 C 153.492 245.562,147.259 241.116,133.555 241.684 C 126.641 241.971,125.615 241.975,121.100 241.735 C 117.594 241.549,117.149 241.573,117.001 241.959 M224.151 247.831 C 224.390 254.854,224.444 287.620,224.234 298.211 L 224.101 304.944 239.414 304.981 L 254.727 305.019 254.787 302.404 L 254.847 299.790 252.923 299.958 C 251.865 300.050,249.666 300.253,248.036 300.408 C 246.407 300.563,242.152 300.715,238.582 300.744 L 232.091 300.799 231.879 295.206 C 231.657 289.360,231.838 252.299,232.121 245.438 L 232.285 241.476 230.723 241.702 C 228.802 241.980,227.492 241.976,225.483 241.689 L 223.935 241.467 224.151 247.831 M264.318 247.568 C 264.547 254.451,264.625 287.614,264.437 298.130 L 264.314 305.049 268.135 305.054 C 270.236 305.057,272.069 304.989,272.209 304.903 C 272.369 304.804,272.347 301.523,272.149 295.982 C 271.880 288.475,271.929 266.407,272.263 244.341 L 272.304 241.678 271.372 241.725 C 270.859 241.751,269.720 241.811,268.842 241.858 C 267.963 241.905,266.540 241.839,265.680 241.710 L 264.116 241.475 264.318 247.568 M364.227 241.744 C 364.162 241.854,361.412 248.655,358.115 256.858 C 351.275 273.875,344.485 290.543,340.766 299.447 C 337.599 307.028,337.539 306.292,341.323 306.200 L 344.431 306.125 344.896 304.660 C 345.151 303.855,345.981 301.218,346.740 298.802 C 348.939 291.796,352.326 282.453,352.798 282.091 C 353.298 281.706,372.714 281.604,373.311 281.983 C 373.707 282.234,379.188 296.812,380.857 302.052 C 382.331 306.677,381.749 306.258,386.701 306.258 C 391.682 306.258,391.481 306.433,390.110 303.296 C 387.707 297.800,378.847 275.094,370.799 253.810 C 368.393 247.447,366.294 242.084,366.136 241.892 C 365.827 241.521,364.424 241.412,364.227 241.744 M192.358 244.099 C 203.038 246.458,208.863 256.831,208.871 273.502 C 208.879 291.592,201.013 302.346,187.750 302.377 C 175.366 302.407,167.917 293.297,166.677 276.606 C 165.040 254.587,176.154 240.519,192.358 244.099 M136.919 245.657 C 148.115 248.030,149.324 264.190,138.681 269.199 C 134.236 271.290,125.211 271.769,124.751 269.938 C 124.568 269.209,125.122 246.028,125.327 245.822 C 125.892 245.258,134.460 245.135,136.919 245.657 M87.522 264.933 C 89.886 270.891,91.767 275.856,91.700 275.965 C 91.533 276.242,74.632 276.218,74.460 275.941 C 74.384 275.818,76.235 270.825,78.572 264.845 C 80.910 258.865,82.823 253.912,82.823 253.839 C 82.823 253.247,83.782 255.512,87.522 264.933 M367.775 266.041 C 370.172 272.044,372.048 277.043,371.942 277.148 C 371.721 277.370,355.062 277.437,354.707 277.218 C 354.578 277.138,356.387 272.175,358.728 266.188 C 361.068 260.202,362.983 255.264,362.983 255.215 C 362.983 254.332,364.164 257.000,367.775 266.041 M0.000 318.642 L 0.000 320.107 199.579 320.107 C 309.347 320.107,399.347 320.179,399.579 320.268 C 399.935 320.405,400.000 320.177,400.000 318.803 L 400.000 317.177 200.000 317.177 L 0.000 317.177 0.000 318.642 M62.460 330.027 C 62.402 330.210,62.273 335.752,62.174 342.344 C 62.075 348.935,61.977 355.466,61.956 356.858 L 61.917 359.387 63.166 359.456 C 64.888 359.550,64.809 360.107,64.738 348.260 C 64.702 342.411,64.774 337.668,64.898 337.721 C 65.128 337.818,71.900 344.955,76.996 350.469 C 82.032 355.918,85.203 359.599,85.061 359.828 C 84.984 359.952,85.319 360.053,85.803 360.053 L 86.684 360.054 86.454 354.528 C 86.299 350.813,86.331 346.294,86.553 340.746 C 86.735 336.205,86.898 332.071,86.917 331.558 L 86.951 330.626 85.486 330.626 L 84.022 330.626 84.116 341.079 C 84.221 352.627,84.287 352.251,82.495 350.280 C 76.046 343.188,63.226 329.694,62.936 329.694 C 62.733 329.694,62.519 329.844,62.460 330.027 M269.774 330.211 C 268.187 330.535,265.153 332.235,264.665 333.073 C 261.707 338.154,264.094 344.409,269.418 345.528 C 270.598 345.776,273.685 347.660,275.033 348.957 C 276.148 350.028,276.165 350.072,276.165 351.862 C 276.165 358.122,269.628 360.128,265.183 355.231 C 263.440 353.310,263.344 353.337,262.863 355.873 C 262.464 357.980,262.427 357.925,265.151 359.255 C 266.763 360.042,272.703 360.509,272.703 359.849 C 272.703 359.737,273.272 359.443,273.968 359.195 C 280.340 356.927,282.193 347.348,276.765 344.731 C 276.147 344.433,275.495 344.044,275.317 343.866 C 275.139 343.688,274.808 343.541,274.581 343.540 C 274.173 343.538,270.418 341.721,268.816 340.750 C 267.068 339.691,266.215 336.462,267.191 334.600 C 269.204 330.761,273.941 330.408,276.038 333.940 C 276.474 334.675,276.897 335.278,276.978 335.281 C 277.254 335.291,278.296 332.876,278.296 332.226 C 278.296 330.588,273.492 329.453,269.774 330.211 M12.576 330.612 C 12.178 331.256,12.486 351.099,12.919 352.730 C 13.894 356.402,17.261 359.521,20.250 359.521 C 20.537 359.521,20.772 359.640,20.772 359.787 C 20.772 360.098,27.869 360.164,28.007 359.854 C 28.056 359.744,28.755 359.429,29.561 359.154 C 35.473 357.136,36.482 354.395,37.016 338.898 C 37.319 330.114,37.374 330.425,35.534 330.543 L 34.244 330.626 34.210 339.814 C 34.175 349.570,34.005 351.214,32.787 353.601 C 29.976 359.112,20.143 359.096,17.560 353.576 C 16.292 350.867,16.194 349.795,16.290 339.694 L 16.378 330.387 14.559 330.367 C 13.558 330.356,12.666 330.467,12.576 330.612 M111.239 330.395 C 110.924 330.710,111.282 359.068,111.604 359.272 C 112.060 359.560,114.522 359.593,114.951 359.317 C 115.285 359.101,115.426 330.508,115.093 330.475 C 114.508 330.417,111.283 330.350,111.239 330.395 M136.678 330.720 C 136.602 330.918,137.405 333.195,138.462 335.780 C 139.520 338.365,142.070 344.642,144.129 349.731 L 147.872 358.982 148.836 359.250 C 151.035 359.861,150.881 360.067,154.026 352.309 C 155.536 348.586,158.183 342.264,159.908 338.260 C 163.336 330.302,163.319 330.417,161.099 330.544 L 159.673 330.626 157.334 337.017 C 154.386 345.074,150.741 354.194,150.468 354.194 C 150.110 354.194,145.412 342.356,141.512 331.625 C 141.286 331.002,141.021 330.484,140.923 330.473 C 139.141 330.281,136.794 330.417,136.678 330.720 M184.293 330.626 C 184.174 330.772,184.194 333.529,184.337 336.751 C 184.583 342.277,184.450 354.744,184.117 357.410 C 183.845 359.591,183.762 359.569,192.068 359.450 C 199.849 359.338,199.705 359.369,199.625 357.827 L 199.582 356.991 194.171 357.095 C 189.754 357.180,188.717 357.131,188.525 356.829 C 187.674 355.484,188.373 344.671,189.275 345.228 C 189.394 345.302,191.467 345.395,193.881 345.434 L 198.269 345.506 198.350 344.109 L 198.431 342.712 193.505 342.900 L 188.578 343.088 188.430 342.449 C 188.349 342.098,188.372 339.774,188.482 337.284 L 188.682 332.756 190.146 332.671 C 190.952 332.625,193.212 332.719,195.168 332.880 C 199.301 333.222,199.538 333.142,199.414 331.450 L 199.334 330.364 191.922 330.362 C 187.299 330.360,184.428 330.460,184.293 330.626 M222.050 330.691 C 221.869 330.909,221.849 331.820,221.994 333.354 C 222.114 334.637,222.218 340.959,222.225 347.403 L 222.237 359.121 223.797 359.368 C 226.361 359.775,226.248 360.116,226.131 352.365 L 226.030 345.672 226.712 345.672 C 227.595 345.672,233.403 352.610,237.611 358.691 C 238.009 359.267,238.290 359.339,240.596 359.460 C 243.797 359.627,243.805 359.577,241.060 356.289 C 238.185 352.846,232.495 345.580,232.492 345.350 C 232.491 345.246,232.999 345.025,233.622 344.859 C 241.483 342.769,243.184 333.525,236.200 330.850 C 234.678 330.267,222.516 330.131,222.050 330.691 M302.349 330.569 C 302.271 330.697,302.206 337.167,302.206 344.948 C 302.206 360.991,301.963 359.470,304.527 359.498 C 306.682 359.522,306.584 359.920,306.267 352.424 C 306.074 347.836,306.071 343.429,306.258 338.223 C 306.407 334.071,306.469 330.615,306.396 330.541 C 306.159 330.304,302.497 330.330,302.349 330.569 M327.785 331.010 C 327.649 331.367,327.573 331.966,327.617 332.341 L 327.696 333.023 332.010 332.922 L 336.324 332.821 336.495 333.502 C 336.718 334.388,336.467 357.044,336.224 357.947 C 335.932 359.037,336.626 359.521,338.482 359.521 C 340.481 359.521,340.987 359.086,340.780 357.547 C 340.508 355.522,340.338 340.773,340.543 336.884 L 340.746 333.023 345.045 333.088 L 349.345 333.153 349.466 332.022 C 349.643 330.371,350.040 330.431,338.604 330.394 L 328.032 330.360 327.785 331.010 M368.114 330.690 C 367.982 331.034,370.722 335.853,374.079 341.181 C 375.153 342.885,376.421 345.102,376.897 346.108 L 377.763 347.936 377.676 353.595 C 377.629 356.708,377.689 359.269,377.810 359.287 C 379.583 359.552,381.657 359.420,381.844 359.029 C 381.961 358.787,381.963 356.252,381.849 353.395 C 381.571 346.431,381.646 346.247,389.938 333.569 C 391.785 330.747,391.800 330.425,390.093 330.326 C 388.379 330.226,388.132 330.497,385.817 335.020 C 383.980 338.610,381.617 342.765,380.772 343.891 C 380.447 344.324,380.051 343.712,376.845 337.822 C 374.884 334.219,373.139 331.079,372.967 330.844 C 372.566 330.296,368.317 330.161,368.114 330.690 M233.741 333.055 C 237.546 334.867,237.362 340.294,233.422 342.502 C 231.879 343.366,229.112 343.883,227.331 343.639 L 226.099 343.470 226.118 339.178 C 226.129 336.818,226.219 334.348,226.318 333.688 L 226.498 332.490 228.096 332.328 C 230.446 332.089,232.182 332.312,233.741 333.055 " stroke="none" fill="#0c7c84" fill-rule="evenodd"></path><path id="path2" d="" stroke="none" fill="#a87c6c" fill-rule="evenodd"></path><path id="path3" d="" stroke="none" fill="#347c6c" fill-rule="evenodd"></path><path id="path4" d="" stroke="none" fill="#0c7c88" fill-rule="evenodd"></path></g></svg>